<?xml version="1.0" encoding="UTF-8" standalone="no"?><!-- Generator: Gravit.io --><svg xmlns="http://www.w3.org/2000/svg" xmlns:xlink="http://www.w3.org/1999/xlink" style="isolation:isolate" viewBox="0 0 105.028 50.987" width="105.028pt" height="50.987pt"><defs><clipPath id="_clipPath_UB3gTwbWYfzAC3k2Cr4z408p3DY7Q2nd"><rect width="105.028" height="50.987"/></clipPath></defs><g clip-path="url(#_clipPath_UB3gTwbWYfzAC3k2Cr4z408p3DY7Q2nd)"><g><g><path d=" M 39.95 31.047 C 44.336 39.495 54.2 42.349 61.877 37.489 C 69.555 32.629 72.063 21.94 67.753 13.446 C 60.525 -0.798 36.741 -4.387 20.823 5.88 C 41.304 7.775 33.493 18.606 39.95 31.047 Z " fill-rule="evenodd" fill="rgb(255,219,46)"/><path d=" M 42.363 27.494 C 44.135 34.789 51.03 39.069 57.672 37.081 C 64.314 35.093 68.123 27.608 66.415 20.295 C 63.552 8.031 46.333 0.185 32.529 4.45 C 47.57 10.308 39.753 16.752 42.363 27.494 L 42.363 27.494 Z " fill-rule="evenodd" fill="rgb(255,191,46)"/><path d=" M 44.846 19.897 C 46.059 24.24 50.271 26.642 54.202 25.28 C 58.132 23.919 60.253 19.322 59.079 14.966 C 57.11 7.662 46.65 3.374 38.484 6.283 C 47.601 9.431 43.061 13.502 44.846 19.897 L 44.846 19.897 Z " fill-rule="evenodd" fill="rgb(255,157,46)"/></g><path d=" M 75.127 18.059 C 79.512 9.611 89.376 6.757 97.054 11.617 C 104.731 16.477 107.239 27.166 102.929 35.66 C 95.701 49.904 71.917 53.493 56 43.226 C 76.48 41.331 68.669 30.5 75.127 18.059 L 75.127 18.059 Z " fill-rule="evenodd" fill="rgb(0,156,255)"/><path d=" M 77.539 21.611 C 79.311 14.317 86.206 10.036 92.848 12.025 C 99.49 14.013 103.299 21.498 101.591 28.811 C 98.728 41.075 81.51 48.921 67.705 44.656 C 82.746 38.798 74.929 32.354 77.539 21.611 L 77.539 21.611 Z " fill-rule="evenodd" fill="rgb(0,191,255)"/><path d=" M 80.023 29.209 C 81.235 24.866 85.448 22.464 89.378 23.826 C 93.308 25.187 95.429 29.784 94.255 34.14 C 92.286 41.444 81.826 45.732 73.66 42.823 C 82.777 39.675 78.237 35.604 80.023 29.209 L 80.023 29.209 Z " fill-rule="evenodd" fill="rgb(58,225,255)"/></g><text transform="matrix(1,0,0,1,0,49.453)" style="font-family:'Poppins';font-weight:400;font-size:18px;font-style:normal;fill:#000000;stroke:none;">Cides</text></g></svg>