<?xml version="1.0" encoding="UTF-8" standalone="no"?>
<!-- Created with Inkscape (http://www.inkscape.org/) -->

<svg
   xmlns:dc="http://purl.org/dc/elements/1.1/"
   xmlns:cc="http://creativecommons.org/ns#"
   xmlns:rdf="http://www.w3.org/1999/02/22-rdf-syntax-ns#"
   xmlns:svg="http://www.w3.org/2000/svg"
   xmlns="http://www.w3.org/2000/svg"
   xmlns:sodipodi="http://sodipodi.sourceforge.net/DTD/sodipodi-0.dtd"
   xmlns:inkscape="http://www.inkscape.org/namespaces/inkscape"
   width="32"
   height="32"
   viewBox="0 0 8.4666667 8.4666667"
   version="1.1"
   id="svg8"
   sodipodi:docname="icon.svg"
   inkscape:version="0.92.4 (5da689c313, 2019-01-14)">
  <defs
     id="defs2" />
  <sodipodi:namedview
     id="base"
     pagecolor="#ffffff"
     bordercolor="#666666"
     borderopacity="1.0"
     inkscape:pageopacity="0.0"
     inkscape:pageshadow="2"
     inkscape:zoom="3.959798"
     inkscape:cx="80.074306"
     inkscape:cy="-5.3698861"
     inkscape:document-units="mm"
     inkscape:current-layer="layer1"
     showgrid="false"
     units="px"
     fit-margin-top="0"
     fit-margin-left="0"
     fit-margin-right="0"
     fit-margin-bottom="0"
     inkscape:window-width="1920"
     inkscape:window-height="1017"
     inkscape:window-x="-8"
     inkscape:window-y="-8"
     inkscape:window-maximized="1" />
  <metadata
     id="metadata5">
    <rdf:RDF>
      <cc:Work
         rdf:about="">
        <dc:format>image/svg+xml</dc:format>
        <dc:type
           rdf:resource="http://purl.org/dc/dcmitype/StillImage" />
        <dc:title></dc:title>
      </cc:Work>
    </rdf:RDF>
  </metadata>
  <g
     inkscape:label="Calque 1"
     inkscape:groupmode="layer"
     id="layer1"
     transform="translate(-13.012083,-227.50227)">
    <g
       id="g174"
       transform="matrix(0.12090822,0,0,0.12790834,9.5246886,203.98733)">
      <g
         id="g3845"
         transform="matrix(-0.14048639,0,0,0.14048639,107.11522,116.24493)">
        <path
           sodipodi:nodetypes="ssscs"
           inkscape:connector-curvature="0"
           id="path3847"
           d="m 442.15415,748.56779 c -24.99182,43.90935 -81.21056,58.74606 -124.96519,33.48431 -43.75461,-25.26174 -58.04888,-80.81537 -33.48431,-124.96518 41.19307,-74.03614 176.74317,-92.68856 267.45708,-39.32763 -116.71995,9.85378 -72.20385,66.14623 -109.00758,130.8085 z"
           style="fill:#ffdb2e;fill-opacity:1;fill-rule:evenodd;stroke:none" />
        <path
           style="fill:#ffbf2e;fill-opacity:1;fill-rule:evenodd;stroke:none"
           d="m 428.4069,730.10542 c -10.10011,37.91614 -49.3964,60.16248 -87.24965,49.82906 -37.85323,-10.3334 -59.56077,-49.23725 -49.82906,-87.24964 16.3194,-63.74412 114.44853,-104.5232 193.12241,-82.35804 -85.72326,30.45169 -41.16997,63.94211 -56.0437,119.77862 z"
           id="path3849"
           inkscape:connector-curvature="0"
           sodipodi:nodetypes="ssscs" />
        <path
           sodipodi:nodetypes="ssscs"
           inkscape:connector-curvature="0"
           id="path3851"
           d="m 414.25117,690.61736 c -6.9088,22.57325 -30.91738,35.05703 -53.31629,27.97967 -22.39893,-7.07735 -34.48808,-30.96951 -27.79737,-53.60904 11.21984,-37.96492 70.83451,-60.25383 117.37247,-45.13036 -51.9594,16.36058 -26.08471,37.51765 -36.25881,70.75973 z"
           style="fill:#ff9d2e;fill-opacity:1;fill-rule:evenodd;stroke:none" />
      </g>
      <path
         sodipodi:nodetypes="ssscs"
         inkscape:connector-curvature="0"
         id="path3855"
         d="m 73.162524,211.92531 c 3.51102,-6.16867 11.40898,-8.25302 17.55591,-4.70409 6.14693,3.54893 8.15508,11.35346 4.70409,17.55591 -5.78706,10.40107 -24.83001,13.02148 -37.57408,5.52499 16.39757,-1.38432 10.14366,-9.29264 15.31408,-18.37681 z"
         style="fill:#009cff;fill-opacity:1;fill-rule:evenodd;stroke:none;stroke-width:0.26458332" />
      <path
         style="fill:#00bfff;fill-opacity:1;fill-rule:evenodd;stroke:none;stroke-width:0.26458332"
         d="m 75.093824,214.51902 c 1.41893,-5.3267 6.93953,-8.45201 12.25739,-7.0003 5.31787,1.4517 8.36748,6.91716 7.00031,12.25738 -2.29265,8.95518 -16.07846,14.68409 -27.13107,11.57019 12.04295,-4.27805 5.78382,-8.983 7.87337,-16.82727 z"
         id="path3857"
         inkscape:connector-curvature="0"
         sodipodi:nodetypes="ssscs" />
      <path
         sodipodi:nodetypes="ssscs"
         inkscape:connector-curvature="0"
         id="path3859"
         d="m 77.082514,220.06656 c 0.97059,-3.17124 4.34347,-4.92504 7.49022,-3.93077 3.14674,0.99427 4.8451,4.3508 3.90515,7.53134 -1.57624,5.33356 -9.95129,8.46485 -16.48924,6.3402 7.29959,-2.29843 3.66455,-5.27071 5.09387,-9.94077 z"
         style="fill:#3ae1ff;fill-opacity:1;fill-rule:evenodd;stroke:none;stroke-width:0.26458332" />
      <text
         id="text80"
         y="235.79668"
         x="12.309283"
         style="font-style:normal;font-variant:normal;font-weight:normal;font-stretch:normal;font-size:10.58333302px;line-height:1.25;font-family:Arial;-inkscape-font-specification:'Arial, Normal';font-variant-ligatures:normal;font-variant-caps:normal;font-variant-numeric:normal;text-align:start;letter-spacing:0px;word-spacing:0px;writing-mode:lr-tb;text-anchor:start;fill:#000000;fill-opacity:1;stroke:none;stroke-width:0.26458332"
         xml:space="preserve"><tspan
           style="font-style:normal;font-variant:normal;font-weight:normal;font-stretch:normal;font-size:14.11111069px;font-family:Arial;-inkscape-font-specification:'Arial, Normal';font-variant-ligatures:normal;font-variant-caps:normal;font-variant-numeric:normal;font-feature-settings:normal;text-align:start;writing-mode:lr-tb;text-anchor:start;stroke-width:0.26458332"
           y="245.32967"
           x="12.309283"
           id="tspan78"
           sodipodi:role="line" /></text>
    </g>
  </g>
</svg>
